<?xml version="1.0" standalone="no"?>
<!DOCTYPE svg PUBLIC "-//W3C//DTD SVG 20010904//EN"
 "http://www.w3.org/TR/2001/REC-SVG-20010904/DTD/svg10.dtd">
<svg version="1.0" xmlns="http://www.w3.org/2000/svg"
 width="981.000000pt" height="1280.000000pt" viewBox="0 0 981.000000 1280.000000"
 preserveAspectRatio="xMidYMid meet">
<metadata>
Created by potrace 1.15, written by Peter Selinger 2001-2017
</metadata>
<g transform="translate(0.000000,1280.000000) scale(0.100000,-0.100000)"
fill="#000000" stroke="none">
<path d="M3514 12783 c-87 -32 -216 -142 -271 -233 -28 -45 -92 -208 -132
-334 -38 -119 -50 -271 -51 -639 l0 -237 54 -213 c67 -262 100 -367 126 -400
11 -14 40 -33 65 -43 48 -20 58 -34 25 -34 -12 0 -56 -12 -100 -26 -78 -26
-79 -26 -157 -10 -95 19 -101 25 -147 168 -52 159 -59 212 -54 436 4 178 9
215 42 382 37 180 38 189 33 355 -5 196 -13 220 -106 330 -96 112 -214 170
-341 169 -82 -1 -244 -36 -302 -65 -52 -27 -94 -83 -129 -174 -58 -148 -67
-273 -28 -348 9 -16 9 -19 -2 -14 -134 58 -145 61 -224 61 -106 -1 -191 -38
-273 -121 -132 -132 -162 -289 -97 -500 l7 -23 -38 17 c-90 38 -261 5 -329
-62 -35 -35 -122 -171 -186 -290 -57 -105 -90 -231 -90 -340 0 -77 19 -222 37
-290 3 -12 -20 6 -54 42 -70 75 -101 89 -222 104 -134 16 -147 11 -223 -74
-177 -198 -220 -329 -220 -667 -1 -155 1 -172 31 -280 61 -218 75 -285 76
-365 1 -77 -2 -86 -61 -225 -111 -260 -145 -389 -164 -615 -14 -165 -7 -428
16 -600 37 -276 159 -917 270 -1410 30 -137 87 -441 126 -675 49 -302 82 -471
113 -585 74 -270 126 -494 146 -630 41 -273 147 -1248 185 -1695 55 -644 243
-1443 436 -1849 205 -431 517 -671 979 -753 172 -30 460 -31 590 -1 237 54
503 180 653 311 134 116 285 321 371 502 70 150 132 412 195 837 45 296 50
357 56 733 4 190 15 469 25 620 66 946 69 1030 53 1570 -8 256 -12 537 -10
625 4 143 8 175 40 300 20 77 52 208 72 290 19 83 99 364 176 625 77 261 157
536 177 610 l37 135 -1 540 c0 322 -5 621 -13 740 -9 143 -11 309 -6 580 8
425 10 410 -62 569 l-45 101 4 115 c3 63 -1 176 -8 250 -22 216 -18 302 17
458 21 92 45 167 75 230 62 134 87 314 64 468 -26 173 -188 703 -280 917 -45
104 -116 220 -222 361 -166 223 -260 272 -533 282 -119 4 -148 2 -191 -13z"/>
<path d="M5979 12790 c-81 -13 -175 -47 -225 -80 -113 -78 -329 -377 -407
-563 -94 -225 -251 -743 -277 -911 -23 -154 2 -334 64 -468 30 -63 54 -138 75
-230 35 -156 39 -242 17 -458 -7 -74 -11 -187 -8 -250 l4 -115 -45 -101 c-72
-159 -70 -144 -62 -569 5 -271 3 -437 -6 -580 -8 -119 -13 -418 -13 -740 l-1
-540 37 -135 c20 -74 100 -349 177 -610 77 -261 157 -542 176 -625 20 -82 52
-213 72 -290 32 -125 36 -157 40 -300 2 -88 -2 -369 -10 -625 -16 -540 -13
-624 53 -1570 10 -151 21 -430 25 -620 6 -376 11 -437 56 -733 63 -425 125
-687 195 -837 86 -181 237 -386 371 -502 150 -131 416 -257 653 -311 130 -30
418 -29 590 1 308 55 534 172 728 377 102 107 176 219 251 376 193 406 381
1205 436 1849 38 447 144 1422 185 1695 20 136 72 360 146 630 31 114 64 283
113 585 39 234 96 538 126 675 111 493 233 1134 270 1410 23 172 30 435 16
600 -19 226 -53 355 -164 615 -59 139 -62 148 -61 225 1 80 15 147 76 365 30
108 32 125 31 280 0 338 -43 469 -220 667 -76 85 -89 90 -223 74 -121 -15
-152 -29 -222 -104 -34 -36 -57 -54 -54 -42 18 68 37 213 37 290 0 109 -33
235 -90 340 -64 119 -151 255 -186 290 -68 67 -239 100 -329 62 l-38 -17 7 23
c65 211 35 368 -97 500 -82 83 -167 120 -273 121 -79 0 -90 -3 -224 -61 -11
-5 -11 -2 -2 14 39 75 30 200 -28 348 -35 91 -77 147 -129 174 -58 29 -220 64
-302 65 -127 1 -245 -57 -341 -169 -93 -110 -101 -134 -106 -330 -5 -166 -4
-175 33 -355 33 -167 38 -204 42 -382 5 -224 -2 -277 -54 -436 -46 -143 -52
-149 -147 -168 -78 -16 -79 -16 -157 10 -44 14 -88 26 -100 26 -33 0 -23 14
25 34 25 10 54 29 65 43 26 33 59 138 126 400 l54 213 0 237 c-1 368 -13 520
-51 639 -46 144 -106 292 -141 347 -42 66 -159 171 -226 204 -52 25 -68 28
-177 30 -66 1 -145 -2 -176 -7z"/>
</g>
</svg>
